<?xml version="1.0" encoding="UTF-8" standalone="no"?>
<svg
   xmlns:dc="http://purl.org/dc/elements/1.1/"
   xmlns:cc="http://creativecommons.org/ns#"
   xmlns:rdf="http://www.w3.org/1999/02/22-rdf-syntax-ns#"
   xmlns:svg="http://www.w3.org/2000/svg"
   xmlns="http://www.w3.org/2000/svg"
   viewBox="0 0 196.60919 43.852167"
   height="43.852169"
   width="196.60919"
   id="svg2"
   version="1.1">
  <metadata
     id="metadata8">
    <rdf:RDF>
      <cc:Work
         rdf:about="">
        <dc:format>image/svg+xml</dc:format>
        <dc:type
           rdf:resource="http://purl.org/dc/dcmitype/StillImage" />
        <dc:title></dc:title>
      </cc:Work>
    </rdf:RDF>
  </metadata>
  <defs
     id="defs6" />
  <path
     id="path97"
     d="M 14.66982,40.416254 C 7.3366072,35.61811 3.9107522,32.2805 1.4937992,27.579626 -0.2738258,24.141668 -0.3743468,23.166894 0.6769162,19.658091 2.7573152,12.714338 17.35602,0 23.248494,0 c 5.477089,0 10.677331,7.12071 12.02074,16.460045 l 0.713474,4.960045 -2.395042,-1.556544 C 32.270393,19.007447 28.893443,17.547792 26.083333,16.61987 23.273222,15.691948 19.151688,13.372872 16.924368,11.466369 14.697048,9.559866 12.608729,8 12.28366,8 c -1.7156,0 -0.192142,5.02824 2.520559,8.319217 l 3.111596,3.774904 -2.611596,-0.655468 c -3.739735,-0.938614 -3.343924,1.134518 0.998529,5.229978 1.985568,1.872632 3.223068,3.275766 2.75,3.118077 -0.866576,-0.288859 -1.360124,0.470254 -1.360124,2.091972 0,0.483273 1.328063,1.428781 2.951252,2.101128 1.623188,0.672347 3.658562,2.301941 4.523053,3.62132 C 26.125607,37.064256 27.704929,38 29.215677,38 c 3.417253,0 3.099245,1.649974 -0.773053,4.01096 -4.627427,2.821398 -7.538655,2.484317 -13.772804,-1.594706 z m 60.278967,-7.381282 c -4.487316,-1.078798 -6.256163,-2.798033 -6.256163,-6.080691 0,-3.997736 4.355359,-8.703609 9.283492,-10.030617 5.61886,-1.513002 11.451821,0.173559 12.300944,3.556734 C 91.264567,24.41494 90.080951,25 81.133607,25 c -8.304918,0 -8.440983,0.03973 -8.440983,2.464816 0,3.464069 3.222009,4.900949 9.409278,4.196138 2.973121,-0.338677 4.466763,-0.228525 3.590722,0.264806 -2.541835,1.431401 -7.342208,1.927 -10.743837,1.109212 z M 87.198155,22.991051 c 1.107847,-1.792535 -0.512742,-4.776045 -2.922832,-5.380939 -4.271762,-1.072144 -10.582699,2.401055 -10.582699,5.824147 0,1.015898 12.864673,0.593721 13.505531,-0.443208 z m 32.683315,10.295203 c -3.21443,-0.613891 -3.48966,-2.033773 -1.71498,-8.84726 0.98341,-3.775553 1.17818,-6.054976 0.53569,-6.26914 C 117.13876,17.648714 117.51141,16 119.19262,16 c 0.825,0 1.5,-0.622516 1.5,-1.383369 0,-0.760852 0.94451,-1.630363 2.09891,-1.932246 1.69727,-0.443846 2.00202,-0.178327 1.59253,1.387539 -0.38127,1.458004 0.15018,2.109865 2.15109,2.638458 l 2.65747,0.702039 -2.89127,0.54379 c -2.39864,0.451135 -3.1202,1.310529 -4.23482,5.043789 -1.79232,6.003077 -1.71329,8.021886 0.37609,9.607954 1.792,1.360318 1.46436,1.44709 -2.56115,0.6783 z m 11.83261,-0.592696 c -6.40722,-2.198445 -6.29526,-9.726182 0.20361,-13.690189 4.88905,-2.982091 9.42314,-3.541549 13.38618,-1.651709 2.74547,1.309224 3.38875,2.188538 3.38875,4.632161 V 25 h -9 c -8.08132,0 -9,0.18833 -9,1.845012 0,4.30922 7.99903,6.831423 13.06574,4.119804 1.08562,-0.581005 1.93426,-0.63309 1.93426,-0.118715 0,0.504058 -1.99927,1.419891 -4.44282,2.035184 -5.26831,1.326575 -5.11351,1.329622 -9.53572,-0.187727 z M 145.5033,21.317661 c 0.66766,-4.689824 -6.90851,-5.411423 -11.52986,-1.098172 -3.21119,2.997108 -1.91982,3.91041 5.05629,3.575967 5.46391,-0.261946 6.19813,-0.542973 6.47357,-2.477795 z m 34.51195,11.97379 c -6.52331,-1.232892 -4.04505,-6.475865 3.91157,-8.275232 8.82896,-1.996647 8.90422,-2.034846 8.57411,-4.352109 -0.24589,-1.726003 -1.09414,-2.228531 -4.19008,-2.482331 -2.13498,-0.175022 -4.36248,0.162478 -4.95,0.75 -1.33565,1.335655 -2.99635,1.408159 -2.18501,0.0954 1.18183,-1.912244 7.91815,-3.031253 11.79832,-1.959887 4.23522,1.169402 4.46464,2.135518 2.25253,9.485812 -1.13773,3.780366 -1.1937,5.040296 -0.25,5.627265 0.66877,0.415967 -1.03406,0.680794 -3.78406,0.588503 -2.75,-0.09229 -5.9,0.08013 -7,0.383152 -1.1,0.303023 -2.97982,0.365767 -4.17738,0.139431 z M 189.69263,30 c 4.28413,-4.284126 1.22381,-6.368387 -5.7706,-3.930124 -3.07929,1.073445 -4.72391,3.320978 -3.67363,5.020366 1.05557,1.707944 7.37563,0.978355 9.44423,-1.090242 z M 51.267675,26.25 c -1.044984,-3.7125 -2.100009,-7.3125 -2.3445,-8 -0.26499,-0.745143 0.406454,-1.25 1.66246,-1.25 1.158844,0 2.106989,0.593324 2.106989,1.318499 0,2.646474 3.138874,11.800783 3.94166,11.495578 C 57.08865,29.641335 59.801601,26.6875 62.663062,23.25 65.524524,19.8125 68.500789,17 69.276984,17 c 0.827789,0 -0.07276,1.550407 -2.178171,3.75 -1.974189,2.0625 -5.177412,5.6625 -7.118274,8 -5.007136,6.030405 -6.426374,5.62318 -8.712864,-2.5 z M 93.111596,25 c 1.592195,-6.197308 2.452571,-8 3.818183,-8 0.969565,0 1.762845,0.465833 1.762845,1.035184 0,0.686996 0.702968,0.658967 2.089966,-0.08333 2.25549,-1.207104 10.17406,-1.52474 11.87069,-0.476166 2.73184,1.688372 -0.45847,14.842701 -3.71825,15.331103 -1.97938,0.296565 -1.99916,0.16618 -0.5938,-3.912917 0.79959,-2.320838 1.31826,-5.608892 1.1526,-7.306788 -0.26722,-2.738681 -0.69755,-3.120507 -3.81309,-3.383251 -4.69872,-0.39626 -7.397365,2.252234 -9.434267,9.258931 C 95.067688,31.517638 94.157491,33 92.846507,33 c -1.698239,0 -1.684615,-0.411154 0.265089,-8 z m 56.581024,7.149223 c 0,-0.467927 0.428,-2.155427 0.9511,-3.75 0.52311,-1.594573 1.44046,-4.811723 2.03855,-7.149223 0.82873,-3.238881 1.56813,-4.25 3.10791,-4.25 1.11126,0 1.74237,0.45 1.40245,1 -0.82333,1.332167 -0.39588,1.272264 3.98596,-0.558581 3.80503,-1.589844 5.23463,-1.416378 4.05516,0.49205 C 164.87121,18.520061 163.30625,19 161.75606,19 c -1.5502,0 -3.42213,0.727276 -4.15984,1.616168 -1.58609,1.911113 -3.86717,8.14908 -3.88854,10.633832 -0.009,1.078315 -0.7827,1.75 -2.01506,1.75 -1.1,0 -2,-0.38285 -2,-0.850777 z m 14.03514,-0.325899 c 0.0193,-0.727828 0.84613,-4.223924 1.83734,-7.769102 1.74664,-6.247063 3.60981,-8.509947 5.06633,-6.15324 0.51833,0.838672 1.68201,0.737573 4.35223,-0.378116 4.51132,-1.884948 4.78574,-1.886489 4.0706,-0.02287 -0.31772,0.827956 -1.80232,1.5 -3.31363,1.5 -3.53789,0 -5.5202,2.304928 -7.31028,8.5 -0.88264,3.054626 -2.08536,5.125797 -3.09124,5.323324 -0.90556,0.177828 -1.63067,-0.272172 -1.61135,-1 z"
     style="fill:#949494" />
</svg>
