<?xml version="1.0" encoding="UTF-8" standalone="no"?>
<svg
   xmlns:dc="http://purl.org/dc/elements/1.1/"
   xmlns:cc="http://creativecommons.org/ns#"
   xmlns:rdf="http://www.w3.org/1999/02/22-rdf-syntax-ns#"
   xmlns:svg="http://www.w3.org/2000/svg"
   xmlns="http://www.w3.org/2000/svg"
   viewBox="0 0 180.39832 44.60778"
   height="44.60778"
   width="180.39832"
   id="svg2"
   version="1.1">
  <metadata
     id="metadata8">
    <rdf:RDF>
      <cc:Work
         rdf:about="">
        <dc:format>image/svg+xml</dc:format>
        <dc:type
           rdf:resource="http://purl.org/dc/dcmitype/StillImage" />
        <dc:title></dc:title>
      </cc:Work>
    </rdf:RDF>
  </metadata>
  <defs
     id="defs6" />
  <path
     id="path69"
     d="m 48.995584,43.163043 c -3.648778,-1.58647 -3.829919,-2.146277 -4.975226,-15.375624 l -0.809619,-9.351841 -20.5,-6.448927 C 11.435739,8.439742 1.9238171,5.22307 1.5731341,4.838493 1.2224511,4.453915 0.64167013,3.164706 0.28250913,1.973584 c -0.645048,-2.139243 -0.588443,-2.149724 4.63760497,-0.85869 2.9098438,0.718842 14.9656249,3.665719 26.7906249,6.548614 11.825,2.882895 21.676625,5.395931 21.892501,5.584524 0.215875,0.188593 -0.234125,1.098381 -1,2.021751 -1.015599,1.224446 -1.392501,4.856605 -1.392501,13.419355 0,10.14205 0.259361,12.027068 1.904988,13.845312 2.284713,2.524367 0.77112,2.75529 -4.120143,0.628593 z M 127.2478,42.223046 c 1.27312,-1.943035 1.51857,-4.733687 1.25335,-14.25 -0.18139,-6.508582 -0.68177,-12.556628 -1.11196,-13.440101 -0.67132,-1.378699 2.30718,-2.351502 21.0197,-6.8652 11.99102,-2.892388 24.05185,-5.829103 26.80185,-6.526035 2.75,-0.696932 5.07276,-1.207592 5.1617,-1.134799 0.0889,0.07279 -0.0587,1.279246 -0.32809,2.681007 -0.45485,2.366856 -1.96437,3.003377 -21.1617,8.923275 -11.36955,3.506039 -21.23441,6.801743 -21.92191,7.323787 -0.83363,0.633006 -1.25,3.884551 -1.25,9.761625 0,10.775439 -0.88498,13.358306 -5.07782,14.819937 -4.63807,1.616843 -5.1611,1.416988 -3.38512,-1.293496 z M 56.710739,30.63926 v -9 h 3.616577 c 3.318457,0 3.577183,0.206079 3.138672,2.5 -0.262848,1.375 -0.166348,2.5 0.214443,2.5 0.380792,0 1.29443,-1.125 2.030308,-2.5 1.080462,-2.018862 2.098101,-2.5 5.287669,-2.5 h 3.949709 l -2.439545,3.25 c -3.897783,5.19269 -3.906478,5.299943 -0.779642,9.616415 1.639995,2.263947 2.981809,4.345164 2.981809,4.624926 0,0.279763 -1.727768,0.508659 -3.839485,0.508659 -3.201351,0 -4.059224,-0.457058 -5.161596,-2.75 l -1.32211,-2.75 -1.031446,2.75 c -0.788358,2.101888 -1.692983,2.75 -3.838405,2.75 h -2.806958 z m 18.923077,6.076923 c -3.930009,-3.930009 -3.930009,-8.223837 0,-12.153846 3.944432,-3.944433 10.922873,-4.168036 14.622378,-0.468532 2.72186,2.721861 3.336106,8.814407 1.172742,11.632112 -3.705856,4.826744 -11.471763,5.313623 -15.79512,0.990266 z M 86.098441,32.38926 c 1.408005,-2.235804 -0.238795,-5.122578 -3.172168,-5.560684 -3.049811,-0.455497 -4.5537,2.882872 -2.572757,5.711065 1.751712,2.500918 4.114205,2.439077 5.744925,-0.150381 z m 8.368377,-1 c -0.275491,-4.5375 -0.306752,-8.5875 -0.06947,-9 0.237283,-0.4125 3.104866,-0.75 6.372412,-0.75 4.60765,0 6.38984,0.44886 7.94098,2 2.39464,2.394639 2.54841,4.736532 0.46236,7.041593 -1.26302,1.395624 -1.32365,2.168726 -0.33949,4.328741 2.04599,4.490446 2.87713,2.939068 2.87713,-5.370334 v -8 h 6.56955 c 6.24088,0 6.55357,0.112565 6.25,2.25 -0.2288,1.611005 -1.10054,2.339863 -3.06955,2.566422 -3.31397,0.381315 -3.63903,1.918213 -0.5,2.364027 1.44596,0.205359 2.36419,1.123594 2.56955,2.569551 0.26025,1.832481 -0.15726,2.25 -2.25,2.25 -2.18839,0 -2.56955,0.445013 -2.56955,3 v 3 h -7.43261 c -6.55436,0 -7.50762,-0.236326 -8.06739,-2 -0.34913,-1.1 -1.05445,-2 -1.56739,-2 -0.51293,0 -0.93261,0.9 -0.93261,2 0,1.535669 -0.66667,2 -2.871516,2 H 94.96771 Z m 9.243922,-3.25 c 0,-0.825 -0.42344,-1.5 -0.94098,-1.5 -1.26098,0 -2.1641,1.561589 -1.36517,2.36052 1.12619,1.126184 2.30615,0.68589 2.30615,-0.86052 z M 24.710739,29.627323 C 15.085739,26.447362 7.7556096,23.799154 8.4215626,23.742417 9.6804984,23.635161 41.894408,33.513039 42.627406,34.23109 c 1.563131,1.531257 -2.533518,0.478605 -17.916667,-4.603767 z m 113.000001,4.913991 c 0,-0.49613 0.17164,-0.902054 0.38142,-0.902054 0.40335,0 32.23248,-9.709281 34.36858,-10.483925 0.6875,-0.249318 1.25,-0.07085 1.25,0.396595 0,0.467445 -1.9125,1.350251 -4.25,1.961792 -2.3375,0.611541 -10.4375,3.095887 -18,5.520769 -7.5625,2.424882 -13.75,4.002952 -13.75,3.506823 z M 40.210739,31.145849 C 39.660739,30.961315 31.921284,28.516158 23.01195,25.712166 14.102616,22.908174 6.5682221,20.21768 6.2688531,19.733291 5.7137121,18.835053 38.980632,29.142534 41.710739,30.714667 c 1.457054,0.839045 0.519167,1.108645 -1.5,0.431182 z m 98.000001,-0.264058 c 1.23227,-1.210408 34.61012,-11.465743 35.24641,-10.82945 0.25201,0.252003 -6.67534,2.700271 -15.39411,5.440596 -20.37111,6.402678 -21.08047,6.595231 -19.8523,5.388854 z M 22.860151,22.512041 C 12.767328,19.209325 4.7179271,16.298738 4.9725941,16.044071 5.5805591,15.436107 40.926843,26.539188 42.160739,27.725724 c 1.583014,1.522253 -0.131288,1.059167 -19.300588,-5.213683 z m 115.350589,5.350102 c 1.09812,-1.176607 36.60363,-12.452587 37.23195,-11.824269 0.53118,0.531186 -5.73438,2.746545 -21.64928,7.654686 -7.37954,2.275841 -14.12954,4.386105 -15,4.689475 -1.09352,0.381105 -1.2736,0.220423 -0.58267,-0.519892 z m 0.0366,-3.282115 c 0.29933,-0.484323 7.83854,-3.169543 16.75381,-5.967156 8.91527,-2.797613 17.46249,-5.493117 18.99383,-5.990009 1.66559,-0.540458 2.55889,-0.538815 2.22336,0.0041 -0.30849,0.499141 -4.2614,2.05394 -8.78425,3.455109 -4.52285,1.401169 -13.06258,4.08455 -18.97717,5.963067 -5.9146,1.878518 -10.50891,3.019223 -10.20958,2.5349 z M 35.210739,23.134505 c -2.2,-0.740773 -9.85,-3.21986 -17,-5.509082 -7.15,-2.289222 -13.4147819,-4.55989 -13.9217379,-5.04593 -0.983344,-0.942773 7.5048329,1.554908 26.9217379,7.921831 6.6,2.164181 11.1,3.945037 10,3.957458 -1.1,0.01242 -3.8,-0.583504 -6,-1.324277 z m 4,-2.004724 C 38.660739,20.93641 30.200546,18.219629 20.41031,15.092491 10.620074,11.965352 2.8291951,9.187471 3.0972451,8.919421 3.6217321,8.394934 39.219077,19.263006 41.710739,20.70834 c 1.333333,0.773425 1.333333,0.864709 0,0.821564 -0.825,-0.0267 -1.95,-0.206752 -2.5,-0.400123 z m 99.500001,-0.425733 c 2.52701,-1.473067 38.14534,-12.252781 38.68907,-11.709056 0.28035,0.280359 -6.17249,2.592909 -14.33967,5.139001 -8.16717,2.546091 -16.84206,5.276359 -19.27754,6.067262 -4.92586,1.599638 -7.36894,1.841829 -5.07186,0.502793 z"
     style="fill:#949494" />
</svg>
