<?xml version="1.0" encoding="UTF-8" standalone="no"?>
<svg
   xmlns:dc="http://purl.org/dc/elements/1.1/"
   xmlns:cc="http://creativecommons.org/ns#"
   xmlns:rdf="http://www.w3.org/1999/02/22-rdf-syntax-ns#"
   xmlns:svg="http://www.w3.org/2000/svg"
   xmlns="http://www.w3.org/2000/svg"
   viewBox="0 0 150 40.970329"
   height="40.970329"
   width="150"
   id="svg2"
   version="1.1">
  <metadata
     id="metadata8">
    <rdf:RDF>
      <cc:Work
         rdf:about="">
        <dc:format>image/svg+xml</dc:format>
        <dc:type
           rdf:resource="http://purl.org/dc/dcmitype/StillImage" />
        <dc:title></dc:title>
      </cc:Work>
    </rdf:RDF>
  </metadata>
  <defs
     id="defs6" />
  <path
     id="path34"
     d="m 0,40.076969 c 0,-0.491349 1.4801372,-3.528849 3.2891933,-6.75 l 3.289193,-5.856638 7.7108067,-0.292064 C 18.530137,27.017631 22,26.479241 22,25.981843 22,25.484446 20.403204,22.352967 18.451565,19.023002 l -3.548434,-6.054482 3.6345,-6.4990944 C 20.536606,2.8949236 22.470902,-0.01628642 22.836066,6.8575496e-5 23.20123,0.01642858 25.114171,2.8749326 27.087047,6.3523086 l 3.587048,6.3225014 -3.929769,7.147761 -3.929768,7.14776 h 8.006655 8.006655 l 3.586066,6.412485 c 1.972336,3.526867 3.586066,6.676867 3.586066,7 0,0.323133 -3.35515,0.587515 -7.45589,0.587515 h -7.45589 l -4.1651,-7.131637 -4.165101,-7.131638 -3.955379,7.131638 -3.95538,7.131637 H 7.4236306 C 3.340634,40.970331 0,40.568318 0,40.076969 Z m 53,-6.106638 v -7 h 3.940983 c 2.167541,0 4.219098,0.45 4.559017,1 0.367803,0.595118 -0.822949,1 -2.940983,1 -2.89235,0 -3.559017,0.374635 -3.559017,2 0,1.555556 0.666667,2 3,2 1.65,0 3,0.45 3,1 0,0.55 -1.35,1 -3,1 -2.333333,0 -3,0.444444 -3,2 0,1.625365 0.666667,2 3.559017,2 2.118034,0 3.308786,0.404882 2.940983,1 -0.339919,0.55 -2.391476,1 -4.559017,1 H 53 Z m 11,0 c 0,-8.401723 1.774498,-9.409917 2.200096,-1.25 0.283908,5.443305 0.446584,5.766877 3.049904,6.066422 4.229582,0.486667 3.258178,2.183578 -1.25,2.183578 h -4 z m 11,1 c 0,-3.3 -0.0079,-6.3375 -0.01765,-6.75 -0.0097,-0.4125 1.790293,-0.888374 4,-1.057498 4.762298,-0.364491 5.494803,1.538357 0.767648,1.99414 -4.426151,0.42676 -4.411633,3.201503 0.01898,3.628132 4.030432,0.388095 3.261495,2.185226 -0.934984,2.185226 -2.368509,0 -2.91266,0.352617 -2.440983,1.581787 0.333844,0.869984 0.606989,1.769984 0.606989,2 0,0.230017 1.35,0.418213 3,0.418213 1.65,0 3,0.45 3,1 0,0.55 -1.8,1 -4,1 h -4 z m 12.861614,4.982363 c -2.317323,-1.353318 -3.185789,-5.785521 -1.792664,-9.148824 1.45441,-3.511255 5.406464,-4.786696 7.706162,-2.486999 1.897606,1.897607 0.907205,3.464622 -1.124198,1.778708 C 90.133706,28.006481 88,29.847588 88,34.108705 c 0,4.591694 2.444519,6.341776 4.648354,3.327853 0.973618,-1.331502 1.665631,-1.552242 2.439663,-0.77821 0.774032,0.774032 0.426204,1.538828 -1.226253,2.696254 -2.630056,1.842163 -3.68913,1.947731 -6.00015,0.598092 z M 101,35.376711 c 0,-4.752615 -0.3007,-5.672254 -2,-6.116631 -1.1,-0.287656 -2,-0.920528 -2,-1.40638 0,-1.223769 8.73789,-1.116494 9.5,0.116631 0.33992,0.55 -0.30852,1 -1.44098,1 -1.84991,0 -2.05902,0.609341 -2.05902,6 0,3.333333 -0.44444,6 -1,6 -0.55,0 -1,-2.517129 -1,-5.59362 z m 7.43614,4.287803 c -0.30235,-0.78792 -0.41167,-3.853942 -0.24294,-6.813382 0.2858,-5.012514 0.49164,-5.402132 3.00735,-5.692451 5.48848,-0.633386 8.9433,3.78752 5.31381,6.799732 -1.30032,1.079166 -1.2362,1.550086 0.514,3.775107 2.99114,3.802616 1.20573,4.248627 -1.94873,0.486811 C 111.81882,34.331693 111,34.169316 111,37.411314 c 0,2.823415 -1.75365,4.364576 -2.56386,2.2532 z M 115.5,30.970331 c 0,-0.825 -1.0125,-1.643798 -2.25,-1.819551 -1.73169,-0.24594 -2.25,0.173208 -2.25,1.819551 0,1.646343 0.51831,2.065491 2.25,1.819551 1.2375,-0.175753 2.25,-0.994551 2.25,-1.819551 z m 5.5,2.940983 c 0,-4.451367 0.36941,-6.830711 1,-6.440983 0.55,0.339919 1,3.516476 1,7.059017 0,3.627322 -0.43684,6.440983 -1,6.440983 -0.57222,0 -1,-3.019672 -1,-7.059017 z m 6,5.059017 c -1.11111,-1.111111 -2,-3.333333 -2,-5 0,-3.083167 2.97057,-7 5.30887,-7 1.8229,0 5.32919,2.695272 4.53694,3.487527 -0.35808,0.358077 -1.62228,0.05737 -2.80934,-0.668239 -1.88054,-1.149514 -2.34347,-1.069492 -3.59737,0.621842 -1.77786,2.398072 -1.83059,4.641213 -0.16272,6.922166 1.26997,1.736787 4.72362,1.39294 4.72362,-0.470285 0,-0.491156 0.45,-0.893011 1,-0.893011 1.75403,0 1.0729,2.890619 -0.93426,3.964816 -2.74787,1.470618 -3.79721,1.30371 -6.06574,-0.964816 z m -74,-22 c 0,-5.473504 0.318701,-7.0000004 1.461456,-7.0000004 0.85885,0 1.905574,1.6493294 2.538544,4.0000004 0.592398,2.2 1.267398,4 1.5,4 0.232602,0 0.915193,-1.828194 1.516871,-4.062652 0.738851,-2.743887 1.580027,-3.9611634 2.591365,-3.75 0.823573,0.171958 1.473637,0.650152 1.444585,1.062652 -0.02905,0.4125 -0.05282,3.476558 -0.05282,6.809017 0,4.041593 -0.355576,5.839259 -1.067917,5.399008 -0.587354,-0.363005 -0.991761,-2.077062 -0.898683,-3.809017 0.276605,-5.146917 -0.15897,-5.413466 -1.381575,-0.84545 -1.474452,5.508988 -2.779156,5.72065 -4.292934,0.696442 l -1.205188,-4 -0.07685,4.25 c -0.131923,7.295442 -2.076853,4.720121 -2.076853,-2.75 z m 14,0 c 0,-4 0.428571,-7.0000004 1,-7.0000004 0.571429,0 1,3.0000004 1,7.0000004 0,4 -0.428571,7 -1,7 -0.571429,0 -1,-3 -1,-7 z m 8,1.40638 c 0,-4.752615 -0.300701,-5.672254 -2,-6.116631 -1.1,-0.287656 -2,-0.920528 -2,-1.40638 0,-1.2237694 8.737887,-1.1164944 9.5,0.116631 0.339919,0.55 -0.308524,1 -1.440983,1 -1.84991,0 -2.059017,0.609341 -2.059017,6 0,3.333333 -0.444444,6 -1,6 -0.55,0 -1,-2.517129 -1,-5.59362 z m 8.75,4.513521 C 82.7875,22.329627 82,21.148567 82,20.265653 c 0,-1.415658 0.231867,-1.39546 1.962755,0.170972 C 85.878371,22.170234 89,21.961929 89,20.100492 c 0,-0.512935 -1.575,-1.861882 -3.5,-2.99766 -3.896014,-2.298704 -4.229455,-3.260188 -1.928571,-5.561072 1.992749,-1.9927504 4.816838,-2.0134484 6.448627,-0.04726 1.744466,2.101953 0.613707,2.888574 -1.897718,1.320163 -1.613807,-1.007839 -2.338416,-1.028251 -3.274429,-0.09224 -0.936013,0.936013 -0.388303,1.541998 2.475041,2.738379 3.566985,1.490382 4.153521,2.364814 3.695583,5.50953 -0.419171,2.878498 -3.999189,3.824119 -7.268533,1.9199 z M 95.2,22.770331 C 93.754962,21.325293 93.577541,9.9703306 95,9.9703306 c 0.55,0 1,2.1949004 1,4.8775554 0,3.175221 0.538313,5.324315 1.542382,6.157619 2.224828,1.846446 3.290198,0.229776 3.647618,-5.535174 0.18041,-2.909798 0.72804,-4.79098 1.31,-4.5 1.39177,0.695885 0.71928,11.241693 -0.7775,12.192668 -1.83265,1.16436 -5.166157,0.963675 -6.5225,-0.392668 z m 11.8,-5.8 c 0,-6.9734094 0.0105,-6.9999424 2.75,-6.9846874 4.55933,0.02539 5.70715,1.4177994 5.91525,7.1757684 0.21192,5.863549 -0.51102,6.770499 -5.41525,6.793606 l -3.25,0.01531 z m 6.81311,2.75 c 0.24772,-1.299707 -0.3286,-1.75 -2.23979,-1.75 -1.93548,0 -2.57332,0.512971 -2.57332,2.069551 0,1.571851 0.53864,1.992703 2.23978,1.75 1.23189,-0.175753 2.38988,-1.107051 2.57333,-2.069551 z m -0.31311,-5.75 c 0,-0.825 -1.0125,-1.643798 -2.25,-1.819551 -1.73169,-0.24594 -2.25,0.173208 -2.25,1.819551 0,1.646343 0.51831,2.065491 2.25,1.819551 1.2375,-0.175753 2.25,-0.994551 2.25,-1.819551 z m 5.5,3 c 0,-4 0.42857,-7.0000004 1,-7.0000004 0.57143,0 1,3.0000004 1,7.0000004 0,4 -0.42857,7 -1,7 -0.57143,0 -1,-3 -1,-7 z m 5.56224,5.41938 c -2.22386,-2.22386 -0.82247,-3.964857 1.49979,-1.863242 1.87587,1.69764 4.93797,1.380556 4.93797,-0.511333 0,-0.559881 -1.575,-1.676042 -3.5,-2.480358 -6.09735,-2.547638 -3.79219,-9.0615114 2.5,-7.064447 1.1,0.349126 2,1.279451 2,2.067388 0,1.746819 -1.18717,1.845444 -2.8,0.232612 -0.92394,-0.923944 -1.47222,-0.927778 -2.38333,-0.01667 -0.65084,0.650834 -0.98834,1.303334 -0.75,1.45 0.23833,0.146667 1.78015,0.957135 3.42625,1.801041 3.52538,1.807343 4.23981,4.090041 1.9856,6.344248 -2.05608,2.056083 -4.88429,2.07275 -6.91628,0.04076 z M 135,16.970331 c 0,-5.221379 0.33341,-7.0555314 1.22831,-6.757232 0.67556,0.22519 1.23806,1.50019 1.25,2.833334 0.0171,1.913039 0.54859,2.423898 2.52169,2.423898 1.9839,0 2.56532,-0.567713 2.81642,-2.75 0.63863,-5.5502844 2.18358,-2.543281 2.18358,4.25 0,4 -0.42857,7 -1,7 -0.55,0 -1,-1.35 -1,-3 0,-2.533333 -0.38889,-3 -2.5,-3 -1.5,0 -2.55,0.6 -2.625,1.5 -0.0687,0.825 -0.18125,2.025 -0.25,2.666667 -0.0687,0.641666 -0.6875,1.354166 -1.375,1.583333 -0.92248,0.307494 -1.25,-1.461111 -1.25,-6.75 z m 13,0 c 0,-4 0.42857,-7.0000004 1,-7.0000004 0.57143,0 1,3.0000004 1,7.0000004 0,4 -0.42857,7 -1,7 -0.57143,0 -1,-3 -1,-7 z"
     style="fill:#979797" />
</svg>
