<?xml version="1.0" encoding="UTF-8" standalone="no"?>
<svg
   xmlns:dc="http://purl.org/dc/elements/1.1/"
   xmlns:cc="http://creativecommons.org/ns#"
   xmlns:rdf="http://www.w3.org/1999/02/22-rdf-syntax-ns#"
   xmlns:svg="http://www.w3.org/2000/svg"
   xmlns="http://www.w3.org/2000/svg"
   viewBox="0 0 170.00002 40"
   height="40"
   width="170.00002"
   id="svg2"
   version="1.1">
  <metadata
     id="metadata8">
    <rdf:RDF>
      <cc:Work
         rdf:about="">
        <dc:format>image/svg+xml</dc:format>
        <dc:type
           rdf:resource="http://purl.org/dc/dcmitype/StillImage" />
        <dc:title></dc:title>
      </cc:Work>
    </rdf:RDF>
  </metadata>
  <defs
     id="defs6" />
  <path
     id="path47"
     d="m 1.564293,38.706872 c 0.375531,-0.986221 0.934692,-1.541221 1.242579,-1.233333 0.307887,0.307887 6.34e-4,1.114794 -0.682784,1.793128 -0.987616,0.980267 -1.10248,0.865403 -0.559795,-0.559795 z M 61,38.5 C 60.315311,37.675 59.980111,37 60.255111,37 c 0.275,0 1.0602,0.675 1.744889,1.5 0.684689,0.825 1.019889,1.5 0.744889,1.5 -0.275,0 -1.0602,-0.675 -1.744889,-1.5 z M 0,17.077046 V 0 h 18 c 9.9,0 18,0.177944 18,0.39543 0,0.217487 -8.1,7.902158 -18,17.077046 L 0,34.15409 Z M 32.983901,27.25 c -0.0089,-0.4125 0.979717,-4.9125 2.196826,-9.999999 l 2.212927,-9.25 h 8.668314 C 57.02488,8.000001 60,9.782353 60,16.350075 60,24.888758 55.206163,28 42.04966,28 37.072347,28 32.992755,27.6625 32.983901,27.25 Z m 17.541944,-7.299979 c 2.132075,-4.122978 1.125522,-6.95002 -2.474518,-6.95002 -2.495089,0 -2.940645,0.503362 -3.932612,4.44282 C 42.65151,23.269619 42.561481,23 45.97432,23 c 2.304217,0 3.329658,-0.687148 4.551525,-3.049979 z M 59,27.57556 c 0,-0.233441 2.423323,-4.620941 5.385163,-9.749999 l 5.385162,-9.32556 5.468944,-0.295551 5.468944,-0.29555 1.64667,8.29555 C 84.709779,28.067881 84.723511,28 79.968615,28 77.307653,28 75.741561,27.490092 75.361626,26.5 74.973867,25.489515 73.387307,25 70.5,25 67.612693,25 66.026133,25.489515 65.638374,26.5 65.139278,27.800622 59,28.795318 59,27.57556 Z m 13.78387,-8.420822 c 0.759967,-0.482211 1.000388,-1.553376 0.589173,-2.624986 -0.66881,-1.742891 -0.744597,-1.742106 -2.03387,0.02108 -2.230953,3.051009 -1.457367,4.445313 1.444697,2.603906 z M 87.367691,26.25 c 0.276357,-0.9625 1.480979,-5.4625 2.676938,-9.999999 l 2.174471,-8.25 h 4.457838 c 3.772732,0 4.379632,0.268949 3.949002,1.75 -0.27986,0.9625 -1.505782,5.4625 -2.724273,9.999999 L 95.686229,28 h -4.410502 c -3.725228,0 -4.332432,-0.271903 -3.908036,-1.75 z m 13.616209,1 c -0.009,-0.4125 0.97972,-4.9125 2.19683,-9.999999 l 2.21292,-9.25 h 4.41158 c 4.27909,0 4.3915,0.08004 3.74277,2.664762 l -0.66881,2.664761 3.49368,-2.664761 c 2.5694,-1.959776 4.63571,-2.654597 7.81042,-2.62634 l 4.31672,0.03842 -4.75814,4.211578 c -2.61698,2.316369 -4.75448,4.5805 -4.75001,5.031404 0.004,0.450903 1.35814,2.781981 3.00814,5.180174 1.65001,2.398193 3.00001,4.616772 3.00001,4.930175 0,0.313404 -1.99238,0.569825 -4.42753,0.569825 -3.79814,0 -4.7857,-0.457661 -6.94716,-3.219496 -2.63489,-3.366764 -2.48531,-3.429588 -4.09394,1.719496 -0.48407,1.549474 -8.51519,2.254166 -8.54748,0.750001 z m 27.87257,0.273125 c -0.31404,-0.314041 0.63802,-4.947716 2.1157,-10.297054 l 2.68669,-9.72607 4.17058,-0.307498 c 5.01963,-0.370099 5.03758,-0.251278 1.78343,11.807498 L 137.31909,27.5 l -3.94582,0.297055 c -2.1702,0.16338 -4.20276,0.04011 -4.5168,-0.27393 z m 13.14354,-0.12878 c 0,-0.555204 1.64388,-7.230192 4.09909,-16.644344 0.96162,-3.687183 1.05971,-3.75 5.85612,-3.75 h 4.87812 l 1.96691,5.75 c 2.05264,6.000621 2.29075,5.915359 4.18893,-1.5 0.97231,-3.798358 1.40263,-4.25 4.04937,-4.25 1.6288,0 2.96146,0.30007 2.96146,0.666823 0,0.366752 -1.18909,5.091752 -2.64242,10.5 L 164.71516,28 h -4.77424 -4.77424 l -1.96691,-5.75 c -2.05264,-6.00062 -2.29075,-5.915358 -4.18893,1.5 -0.97231,3.798358 -1.40263,4.25 -4.04937,4.25 -1.6288,0 -2.96146,-0.272545 -2.96146,-0.605655 z"
     style="fill:#929292" />
</svg>
